<?xml version="1.0" encoding="UTF-8"?>
<svg width="154px" height="46px" viewBox="0 0 154 46" version="1.1" xmlns="http://www.w3.org/2000/svg" xmlns:xlink="http://www.w3.org/1999/xlink">
    <title>D0DF557F-1696-4D1A-B4BB-C30901A6E6C4</title>
    <g id="Design" stroke="none" stroke-width="1" fill="none" fill-rule="evenodd">
        <g id="Game-Detail-Among-Us" transform="translate(-548.000000, -824.000000)">
            <g id="itch" transform="translate(548.254438, 824.982902)">
                <rect id="Rectangle-Copy" stroke="#979797" fill="#000000" x="0.24556213" y="0.517097942" width="151" height="43" rx="6"></rect>
                <g id="badge" transform="translate(19.745562, 7.017098)" fill="#FFFFFF" fill-rule="nonzero">
                    <path d="M4.07437327,1.39420603 C2.71049408,2.25165829 0.0255511544,5.52066072 0,6.37811298 L0,7.79774803 C0,9.59680618 1.58693386,11.1779796 3.02763916,11.1779796 C4.75752137,11.1779796 6.19891724,9.65827491 6.19891724,7.85500909 C6.19891724,9.65827491 7.59128251,11.1779796 9.32168265,11.1779796 C11.0515649,11.1779796 12.399043,9.65827491 12.399043,7.85500909 C12.399043,9.65827491 13.8794561,11.1779796 15.6093384,11.1779796 L15.6405867,11.1779796 C17.3709869,11.1779796 18.8508821,9.65827491 18.8508821,7.85500909 C18.8508821,9.65827491 20.1990508,11.1779796 21.9287604,11.1779796 C23.6591605,11.1779796 25.0510078,9.65827491 25.0510078,7.85500909 C25.0510078,9.65827491 26.4930943,11.1779796 28.2228039,11.1779796 C29.6635091,11.1779796 31.250443,9.59680618 31.250443,7.79701626 L31.250443,6.37811298 C31.2250645,5.52066072 28.5392584,2.25165829 27.1762424,1.39420603 C22.9395847,1.2366924 20.0025831,1.20888511 15.6248762,1.20960302 C11.2480325,1.20960302 5.27942096,1.28224512 4.0736827,1.39438897 L4.07437327,1.39438897 L4.07437327,1.39420603 Z M12.3774626,10.3304063 C12.2120665,10.6361316 12.0071731,10.9158716 11.7687236,11.1615148 C11.0916291,11.8647828 10.1810576,12.2582825 9.23294418,12.2573413 C8.28345251,12.2581299 7.37150877,11.8644441 6.69284867,11.160783 C6.46342701,10.9200123 6.26762995,10.6457567 6.11138727,10.3463223 L6.11086934,10.3468711 C5.94634062,10.6533 5.71672552,10.9158228 5.47985941,11.1620636 C4.80067835,11.8652947 3.88848079,12.2584965 2.93890069,12.2573413 C2.82186146,12.2531098 2.70621938,12.2290216 2.5963771,12.1859937 C2.47666964,13.5398431 2.40376552,14.8978818 2.37781115,16.2573826 L2.37781115,16.2634197 L2.37004222,17.873864 C2.39593866,21.0938378 2.06912558,28.310377 3.70957875,30.0838231 C6.25243655,30.7116824 10.9308874,30.9979876 15.6243583,31 L15.6255668,31 C20.3190376,30.9979876 24.9981791,30.7116824 27.5403463,30.0838231 C29.1813174,28.310377 28.8538138,21.0938378 28.8805734,17.8731322 L28.8726319,16.2634197 L28.8726319,16.2566509 C28.8467354,14.8973869 28.7738801,13.5395864 28.6540659,12.1861766 C28.5442334,12.2292412 28.4285856,12.2533306 28.3115423,12.2575243 C27.3619245,12.258436 26.4497837,11.8649692 25.7707562,11.1615148 C25.5338901,10.9152739 25.3041024,10.6533 25.1397463,10.3468711 L25.1390557,10.3468711 C24.9827895,10.6458561 24.7870529,10.919677 24.557767,11.1600512 C23.8790951,11.8638067 22.9670611,12.2575047 22.0174988,12.2566095 C21.069456,12.2574439 20.1589749,11.8639565 19.481892,11.160783 C19.2434426,10.9151399 19.0385492,10.6353998 18.873153,10.3296745 C18.7095535,10.6350531 18.5065872,10.9147801 18.2701113,11.160783 C17.5912804,11.8646215 16.6790559,12.2583215 15.7293252,12.2573413 C15.694956,12.2571123 15.660594,12.2561974 15.6262574,12.2545972 L15.6248762,12.2545972 C15.5910382,12.2545972 15.5565096,12.2573413 15.5218084,12.2573413 C14.5720777,12.2583215 13.6598532,11.8646215 12.9810223,11.160783 C12.7443767,10.9150083 12.5412335,10.6354626 12.3774626,10.3302233 L12.3774626,10.3304063 Z M9.76813728,13.9051059 L9.76813728,13.9071182 L9.77003635,13.9071182 C10.802959,13.9091306 11.7210742,13.9071182 12.8582732,15.222293 C13.7774242,15.1216746 14.7008912,15.072463 15.6248762,15.0750242 C16.5488763,15.0726692 17.4723535,15.1218268 18.3914793,15.222293 C19.5295415,13.9071182 20.446966,13.9085818 21.4805793,13.9071182 L21.4824784,13.9071182 L21.4824784,13.9056547 C21.9705399,13.9056547 23.9227863,13.9056547 25.2839032,17.9554564 L26.7454983,23.5110592 C27.82866,27.6437339 26.398486,27.7447183 24.6150844,27.7489259 C21.9698494,27.6444657 20.5056646,25.6088627 20.5056646,23.5732597 C19.0414799,23.8277329 17.3331781,23.955061 15.6248762,23.955061 C13.916747,23.955061 12.2084452,23.8277329 10.7442604,23.5732597 C10.7442604,25.6088627 9.2800757,27.6444657 6.63484065,27.7489259 C4.85143913,27.7447183 3.42195562,27.6437339 4.50494475,23.5103274 L5.96653984,17.9554564 C7.32765675,13.9056547 9.2800757,13.9056547 9.76813728,13.9056547 L9.76813728,13.9051059 L9.76813728,13.9051059 Z M15.6248762,17.0883082 C15.6222866,17.0917841 12.839973,19.7987867 12.3401717,20.7619798 L14.1620726,20.684595 L14.1620726,22.3682164 C14.1620726,22.4470647 14.8928702,22.4145009 15.6248762,22.3784612 C16.3570549,22.4145009 17.088543,22.4470647 17.088543,22.3682164 L17.088543,20.684595 L18.9102713,20.7619798 C18.4097794,19.7995184 15.6255668,17.08904 15.6255668,17.08904 L15.6248762,17.0883082 L15.6248762,17.0883082 Z M41.8177444,30.0305868 L41.8177444,16.5581404 L46.1072308,16.5581404 L46.1072308,30.0305868 L41.8177444,30.0305868 L41.8177444,30.0305868 Z M43.9885567,15.4621309 C43.2648375,15.4621309 42.7047838,15.2705899 42.3083957,14.887508 C41.9294444,14.5040601 41.7400551,13.9929183 41.7400551,13.3538996 C41.7400551,12.7514694 41.9294444,12.2403276 42.3083957,11.8202913 C42.7047838,11.4009867 43.2644922,11.1911515 43.9880388,11.1911515 C44.711758,11.1911515 45.2631795,11.4009867 45.6421307,11.8204742 C46.0383463,12.2397788 46.2365404,12.7511036 46.2365404,13.3538996 C46.2365404,13.9929183 46.0385189,14.5040601 45.6426487,14.887508 C45.2633521,15.2705899 44.7121032,15.4621309 43.9885567,15.4621309 L43.9885567,15.4621309 Z M52.5083129,30.304452 C51.2677008,30.304452 50.3285232,29.9575927 49.6907802,29.2638741 C49.0709921,28.5520442 48.761098,27.5663492 48.761098,26.306606 L48.761098,19.9261148 L47.0553858,19.9261148 L47.0553858,16.5574086 L48.761098,16.5574086 L48.761098,13.2717584 L53.0505844,13.2717584 L53.0505844,16.5581404 L55.842048,16.5581404 L55.842048,19.925383 L53.0505844,19.925383 L53.0505844,25.6489271 C53.0505844,26.0689635 53.1279284,26.3700871 53.2827891,26.5526639 C53.4550868,26.7173123 53.7135333,26.7994535 54.0581286,26.7994535 C54.5235739,26.7994535 55.0318347,26.5802882 55.582911,26.1419576 L56.564904,29.1268501 C56.0656206,29.4923695 55.4971074,29.784529 54.8593644,30.0029625 C54.2219667,30.2043824 53.4383404,30.3051838 52.5083129,30.3051838 L52.5083129,30.304452 Z M63.0593859,30.304452 C61.0952272,30.304452 59.544721,29.7111689 58.4076947,28.5246028 C57.2879326,27.3382197 56.7280515,25.6130704 56.7280515,23.3493379 C56.7280515,21.7059639 57.0467504,20.3276739 57.6839755,19.2144678 C58.3386375,18.0639414 59.1573103,17.2878986 60.1399939,16.8865224 C61.1736071,16.4664861 62.1298763,16.2566509 63.0091468,16.2566509 C64.1112993,16.2566509 65.0332126,16.4939275 65.7743687,16.9688466 C66.5151795,17.4251056 67.0577963,17.9271003 67.4023916,18.4746477 C67.7647691,19.022378 68.0232156,19.4511956 68.1775584,19.7614664 L65.2060282,21.7881052 C64.9311806,21.1854921 64.6297461,20.7107558 64.3017245,20.3637136 C63.9745661,20.0170373 63.5786959,19.8437906 63.1141137,19.8437906 C62.4591064,19.8437906 61.9422135,20.1174728 61.5637802,20.6652031 C61.1848289,21.2127505 60.9954396,22.0434931 60.9954396,23.1570651 C60.9954396,24.3619255 61.2195302,25.2475509 61.6675386,25.8135755 C62.1146838,26.3796001 62.7520815,26.6626124 63.5793864,26.6626124 C64.2345664,26.6626124 64.7771831,26.5347355 65.2074093,26.2789817 C65.6554177,26.022679 66.0775297,25.693931 66.4739179,25.2929207 L67.8441849,28.6877877 C67.4305324,29.0523924 66.8186858,29.4177289 66.0086452,29.7837972 C65.1991225,30.1299247 64.2171294,30.3029885 63.0626661,30.3029885 L63.0593859,30.304452 L63.0593859,30.304452 Z M69.3011186,30.0305868 L69.3011186,11.73815 L73.6168467,11.73815 L73.6168467,17.2972287 C73.978361,17.0233635 74.4177373,16.7860869 74.9349755,16.5850329 C75.4516958,16.3660506 76.0718292,16.2566509 76.7952031,16.2566509 C78.3111807,16.2566509 79.439575,16.7129099 80.1803858,17.6256108 C80.9386336,18.5392264 81.3177575,19.826594 81.3177575,21.4878963 L81.3177575,30.0320504 L77.0020294,30.0320504 L77.0020294,22.0348948 C77.0020294,21.268731 76.8642603,20.7120364 76.5890675,20.3644454 C76.3140473,19.9998407 75.9523603,19.8174468 75.503834,19.8174468 C75.1250554,19.8174468 74.7714826,19.9089182 74.4436337,20.0920438 C74.1168206,20.2744376 73.8412825,20.4665274 73.6168467,20.6679473 L73.6168467,30.033331 L69.3011186,30.033331 L69.3011186,30.0305868 L69.3011186,30.0305868 Z M84.6311207,30.304452 C83.9421027,30.304452 83.3993133,30.0946168 83.0030978,29.6751292 C82.6072275,29.2552758 82.4093787,28.7166926 82.4093787,28.0593796 C82.4093787,27.4020667 82.6072275,26.8543363 83.0030978,26.4165545 C83.3993133,25.9785898 83.9421027,25.7596074 84.6311207,25.7596074 C85.2857827,25.7596074 85.8113078,25.9785898 86.2075233,26.4165545 C86.6042568,26.8543363 86.8026235,27.4020667 86.8026235,28.0593796 C86.8026235,28.7166926 86.6047747,29.2550929 86.2089045,29.6745804 C85.8304712,30.0944338 85.3049461,30.304452 84.6323292,30.304452 L84.6311207,30.304452 L84.6311207,30.304452 Z M87.8048158,30.0305868 L87.8048158,16.5581404 L92.0944748,16.5581404 L92.0944748,30.0305868 L87.8048158,30.0305868 Z M89.9744195,15.464875 C89.2510456,15.464875 88.6911646,15.2731511 88.2949491,14.8897033 C87.9159978,14.5066213 87.7266085,13.9956625 87.7266085,13.3566438 C87.7266085,12.7542136 87.9158252,12.2430718 88.2942585,11.8232184 C88.6909919,11.403182 89.2510456,11.1931638 89.9744195,11.1931638 C90.6983114,11.1931638 91.2497329,11.4029991 91.6285115,11.8224866 C92.0243817,12.2428888 92.2222305,12.7542136 92.2222305,13.3566438 C92.2222305,13.9956625 92.0243817,14.5066213 91.6285115,14.8897033 C91.2497329,15.2731511 90.6983114,15.464875 89.9744195,15.464875 L89.9744195,15.464875 Z M99.6693562,30.304452 C98.6700989,30.304452 97.7827142,30.1310224 97.0072021,29.784529 C96.2320354,29.4193754 95.5687412,28.9263449 95.017665,28.3054375 C94.483853,27.6666018 94.0707185,26.9181833 93.777916,26.0603652 C93.5016873,25.1840698 93.363573,24.2345974 93.363573,23.211765 C93.363573,21.6969997 93.6736397,20.3735925 94.2939458,19.2415433 C94.9316888,18.1277884 95.7242925,17.3521115 96.6717569,16.9141468 C97.6364856,16.4758162 98.635743,16.2566509 99.6693562,16.2566509 C101.15046,16.2566509 102.37329,16.6216215 103.337673,17.3517456 C104.319494,18.0820527 105.00903,18.9947537 105.406108,20.0898485 C105.801979,21.185675 106,22.2264358 106,23.2123138 C106,24.2344145 105.853254,25.1837039 105.560106,26.0603652 C105.28474,26.9178174 104.871088,27.6660529 104.319148,28.3054375 C103.784818,28.9263449 103.121524,29.4195583 102.328921,29.7850778 C101.553754,30.132303 100.666369,30.3057326 99.6667666,30.3057326 L99.6693562,30.304452 L99.6693562,30.304452 Z M99.6693562,26.7989047 C100.39273,26.7989047 100.918255,26.4796698 101.245759,25.8411999 C101.572917,25.1838869 101.73641,24.3075915 101.73641,23.2123138 C101.73641,22.171553 101.564285,21.3409933 101.21969,20.7204518 C100.875612,20.0995444 100.358892,19.7890907 99.6693562,19.7890907 C98.9972573,19.7890907 98.4891691,20.0995444 98.1450917,20.7204518 C97.8010144,21.3409933 97.6288894,22.171553 97.6288894,23.2123138 C97.6288894,24.3075915 97.7927275,25.1837039 98.1202311,25.8404681 C98.4656897,26.4798527 98.98241,26.7994535 99.6705647,26.7994535 L99.6693562,26.7989047 Z M52.7028815,5.20362108 C52.3686448,5.22008592 52.0875821,5.25155206 51.8595208,5.2980195 C51.6314595,5.34101102 51.4488032,5.39717442 51.3112068,5.46669263 C51.173783,5.53621084 51.0753766,5.61743739 51.01616,5.71000637 C50.9578625,5.79892748 50.926764,5.90468633 50.9270739,6.01295942 C50.9270739,6.22809999 50.9864654,6.38195477 51.1050711,6.4747067 C51.2269571,6.56745863 51.3847527,6.61374312 51.5782854,6.61374312 C51.8158421,6.61374312 52.020424,6.56910512 52.1922037,6.47964615 C52.367091,6.38689422 52.5373169,6.2478578 52.7028815,6.06253688 L52.7028815,5.20362108 L52.7028815,5.20362108 Z M50.0509134,2.99403961 C50.6037161,2.45801761 51.2690819,2.18982367 52.047011,2.18982367 C52.3280737,2.18982367 52.5796145,2.23940113 52.801288,2.33873899 C53.0231342,2.43478389 53.2104517,2.5703444 53.363586,2.74578642 C53.5167203,2.91793546 53.6322184,3.12484361 53.710253,3.36651087 C53.7915679,3.60799518 53.8321389,3.87289616 53.8321389,4.16084791 L53.8321389,7.37844345 L53.3073044,7.37844345 C53.1980214,7.37844345 53.1137717,7.36179567 53.0543825,7.32868305 C52.9949934,7.29227746 52.9482071,7.22111276 52.9138512,7.11518896 L52.8106107,6.7478401 C52.6969014,6.8566824 52.5780874,6.95938253 52.454621,7.05554965 C52.3389502,7.14153271 52.2187907,7.21452683 52.0937972,7.27398319 C51.9688037,7.3336225 51.8344875,7.37826051 51.6908486,7.40808016 C51.5503173,7.44119279 51.3940754,7.45784057 51.2222957,7.45784057 C51.0192676,7.45784057 50.8317774,7.4296674 50.6599977,7.37332106 C50.4882179,7.31386469 50.339745,7.22605222 50.2149242,7.11024951 C50.0881414,6.99174545 49.9887339,6.84397179 49.9243661,6.67832188 C49.8556542,6.50617284 49.8212983,6.30585062 49.8212983,6.07753818 C49.8212983,5.94838066 49.8414975,5.82086963 49.8822412,5.69518802 C49.9256365,5.56077958 49.9923252,5.4361347 50.0788815,5.32765621 C50.1726266,5.2118535 50.2929588,5.10263673 50.4397053,5.00018884 C50.5866244,4.89737507 50.7661731,4.80809905 50.9785239,4.7319949 C51.1941549,4.65570781 51.4439692,4.59460496 51.7283121,4.54813753 C52.0124824,4.49856006 52.3373964,4.46874041 52.7028815,4.45886151 L52.7028815,4.16084791 C52.7028815,3.82002573 52.6341696,3.56847957 52.4967458,3.40620943 C52.3593221,3.24064632 52.1609553,3.15795624 51.9016456,3.15795624 C51.7143281,3.15795624 51.5580862,3.18118995 51.4330927,3.22747445 C51.320683,3.26912056 51.2123818,3.32230459 51.1097325,3.38626868 C51.01616,3.44261502 50.9301838,3.49383896 50.8521492,3.5403064 C50.7752122,3.58715751 50.6877819,3.61117223 50.5990547,3.60982461 C50.5179125,3.60982461 50.4492006,3.58823738 50.392919,3.54524585 C50.3388669,3.50146782 50.2928204,3.44759027 50.257049,3.38626868 L50.0509134,2.99403961 L50.0509134,2.99403961 Z M59.1466064,2.28422208 L57.2394199,7.37844345 L56.1899235,7.37844345 L54.2829097,2.28403914 L55.2386609,2.28403914 C55.3261909,2.28403914 55.3980104,2.30562637 55.454292,2.3486179 C55.5136811,2.39160942 55.5526984,2.44630928 55.5713439,2.51253452 L56.499127,5.23344074 C56.5947428,5.535588 56.6714477,5.84408912 56.7287421,6.1569353 C56.7599905,6.004727 56.7943464,5.85233576 56.8318099,5.70012747 C56.8692735,5.54791917 56.9146786,5.39223497 56.9676799,5.23344074 L57.9142812,2.51253452 C57.9361118,2.44624067 57.9770599,2.38889802 58.0313331,2.3486179 C58.0876147,2.30562637 58.1547728,2.28403914 58.2328074,2.28403914 L59.1466064,2.28403914 L59.1466064,2.28422208 Z M62.1839136,5.20362108 C61.8496769,5.22008592 61.5686142,5.25155206 61.3405528,5.2980195 C61.1124915,5.34101102 60.9298353,5.39717442 60.7924115,5.46669263 C60.6549878,5.53621084 60.5565813,5.61743739 60.4971921,5.71000637 C60.4388946,5.79892748 60.4077961,5.90468633 60.408106,6.01295942 C60.408106,6.22809999 60.4674975,6.38195477 60.5862759,6.4747067 C60.7079891,6.56745863 60.8657848,6.61374312 61.0594901,6.61374312 C61.2968742,6.61374312 61.5014561,6.56910512 61.6732358,6.47964615 C61.8481231,6.38689422 62.018349,6.2478578 62.1839136,6.06253688 L62.1839136,5.20362108 L62.1839136,5.20362108 Z M59.5319455,2.99403961 C60.0847481,2.45801761 60.750114,2.18982367 61.5280431,2.18982367 C61.8091058,2.18982367 62.0606465,2.23940113 62.2823201,2.33873899 C62.5041662,2.43478389 62.6916565,2.5703444 62.8446181,2.74578642 C62.9977524,2.91793546 63.1132505,3.12484361 63.1914578,3.36651087 C63.2725999,3.60799518 63.313171,3.87289616 63.313171,4.16084791 L63.313171,7.37844345 L62.7885091,7.37844345 C62.6790535,7.37844345 62.5948038,7.36179567 62.5354146,7.32868305 C62.4760254,7.29227746 62.4292392,7.22111276 62.3948833,7.11518896 L62.2918154,6.7478401 C62.1780132,6.8566417 62.0591437,6.95934 61.935653,7.05554965 C61.8222039,7.14034836 61.7013825,7.21349057 61.5748293,7.27398319 C61.4498358,7.3336225 61.3155196,7.37826051 61.1718807,7.40808016 C61.0313494,7.44119279 60.8751075,7.45784057 60.7033278,7.45784057 C60.5002997,7.45784057 60.3128095,7.4296674 60.1410297,7.37332106 C59.96925,7.31386469 59.8209497,7.22605222 59.6959562,7.11024951 C59.5691734,6.99174545 59.469766,6.84397179 59.4053982,6.67832188 C59.3366863,6.50617284 59.3023304,6.30585062 59.3023304,6.07753818 C59.3023304,5.94838066 59.3227022,5.82086963 59.3632733,5.69518802 C59.406665,5.56073926 59.4734183,5.43608296 59.5600863,5.32765621 C59.6538314,5.2118535 59.7739909,5.10263673 59.92091,5.00018884 C60.0676565,4.89737507 60.2472051,4.80809905 60.4597286,4.7319949 C60.675187,4.65570781 60.9251739,4.59460496 61.2093442,4.54813753 C61.4936871,4.49856006 61.8184285,4.46874041 62.1839136,4.45886151 L62.1839136,4.16084791 C62.1839136,3.82002573 62.1152017,3.56847957 61.9777779,3.40620943 C61.8403541,3.24064632 61.6419874,3.15795624 61.3826777,3.15795624 C61.1953601,3.15795624 61.0391183,3.18118995 60.9141248,3.22747445 C60.7924115,3.27375894 60.6845097,3.32681231 60.5909372,3.38626868 C60.4971921,3.44261502 60.4112159,3.49383896 60.3331813,3.5403064 C60.2582543,3.58659089 60.1738319,3.60982461 60.0800868,3.60982461 C59.9989446,3.60982461 59.9302327,3.58823738 59.8739511,3.54524585 C59.8198989,3.50146782 59.7738524,3.44759027 59.7380811,3.38626868 L59.5319455,2.99403961 L59.5319455,2.99403961 Z M65.6027616,2.28422208 L65.6027616,7.37844345 L64.440702,7.37844345 L64.440702,2.28403914 L65.6027616,2.28403914 L65.6027616,2.28422208 Z M65.7621232,0.799459434 C65.7621232,0.905566178 65.7417392,1.0047211 65.7011681,1.09747303 C65.660597,1.19004202 65.6058692,1.27126856 65.5371573,1.34078677 C65.4695037,1.4117804 65.3900861,1.46895907 65.3028809,1.50945991 C65.2107097,1.54952836 65.1119465,1.56980026 65.0123228,1.56909921 C64.9142909,1.56950077 64.8171636,1.54922734 64.7265987,1.50945991 C64.6412587,1.4680494 64.5635186,1.41094222 64.4969836,1.34078677 C64.4307163,1.27029723 64.3767652,1.18791827 64.3376342,1.09747303 C64.2998412,1.00325806 64.2806859,0.901830234 64.2813526,0.799459434 C64.2813526,0.690242665 64.3001707,0.587611831 64.3376342,0.491749876 C64.3759572,0.399303123 64.4299686,0.315095763 64.4969836,0.243313741 C64.562588,0.173795529 64.6390688,0.119278616 64.7265987,0.0795800581 C64.8163973,0.0366860696 64.9138229,0.014666133 65.0123228,0.0149975289 C65.1153906,0.0149975289 65.2122433,0.0365885324 65.3028809,0.0795800581 C65.3904597,0.117129389 65.4701018,0.172790512 65.5371573,0.243313741 C65.6058692,0.312831952 65.660597,0.395704978 65.7011681,0.491749876 C65.7419207,0.588553654 65.7626982,0.693462119 65.7621232,0.799459434 L65.7621232,0.799459434 Z M67.9539858,0 L67.9539858,7.37826051 L66.7967602,7.37826051 L66.7967602,0.000182942662 L67.9539858,0.000182942662 L67.9539858,0 Z M71.6468182,5.20362108 C71.3125814,5.22008592 71.0313461,5.25155206 70.8032848,5.2980195 C70.5753961,5.34101102 70.3925672,5.39717442 70.2551435,5.46669263 C70.1177197,5.53621084 70.0193132,5.61743739 69.959924,5.71000637 C69.9016265,5.79892748 69.870528,5.90468633 69.870838,6.01295942 C69.870838,6.22809999 69.9302295,6.38195477 70.0490078,6.4747067 C70.1707211,6.56745863 70.3285167,6.61374312 70.5222221,6.61374312 C70.7596061,6.61374312 70.964188,6.56910512 71.1359677,6.47964615 C71.3110276,6.38689422 71.4812536,6.2478578 71.6468182,6.06253688 L71.6468182,5.20362108 L71.6468182,5.20362108 Z M68.9946774,2.99403961 C69.5476527,2.45801761 70.2130186,2.18982367 70.990775,2.18982367 C71.2718377,2.18982367 71.5233785,2.23940113 71.7452246,2.33873899 C71.9668982,2.43478389 72.1543884,2.5703444 72.30735,2.74578642 C72.4604843,2.91793546 72.5761551,3.12484361 72.6541897,3.36651087 C72.7353319,3.60799518 72.7760756,3.87289616 72.7760756,4.16084791 L72.7760756,7.37844345 L72.2512411,7.37844345 C72.1419581,7.37844345 72.0575357,7.36179567 71.9981465,7.32868305 C71.9387574,7.29227746 71.8919711,7.22111276 71.8576152,7.11518896 L71.7545473,6.7478401 C71.6407807,6.85668563 71.5219091,6.95938577 71.398385,7.05554965 C71.2849358,7.14034836 71.1641145,7.21349057 71.0375612,7.27398319 C70.9127404,7.3336225 70.7784242,7.37826051 70.6346126,7.40808016 C70.4940813,7.44119279 70.3378394,7.45784057 70.1660597,7.45784057 C69.9630316,7.45784057 69.775714,7.4296674 69.6037617,7.37332106 C69.4319819,7.31386469 69.2836817,7.22605222 69.1586882,7.11024951 C69.0319054,6.99174545 68.9324979,6.84397179 68.8681301,6.67832188 C68.7994182,6.50617284 68.7650623,6.30585062 68.7650623,6.07753818 C68.7650623,5.94838066 68.7854341,5.82086963 68.8260052,5.69518802 C68.8693969,5.56073926 68.9361502,5.43608296 69.0228182,5.32765621 C69.1165633,5.2118535 69.2367228,5.10263673 69.3836419,5.00018884 C69.5303884,4.89737507 69.7101097,4.80809905 69.9224605,4.7319949 C70.1379189,4.65570781 70.3879059,4.59460496 70.6720761,4.54813753 C70.9564191,4.49856006 71.2813331,4.46874041 71.6468182,4.45886151 L71.6468182,4.16084791 C71.6468182,3.82002573 71.5781063,3.56847957 71.4405099,3.40620943 C71.3030861,3.24064632 71.1047193,3.15795624 70.8455823,3.15795624 C70.6580921,3.15795624 70.5018502,3.18118995 70.3770294,3.22747445 C70.2646196,3.26912056 70.1563184,3.32230459 70.0536692,3.38626868 C69.959924,3.44261502 69.8739479,3.49383896 69.7959132,3.5403064 C69.7209862,3.58659089 69.6365638,3.60982461 69.5429913,3.60982461 C69.4616765,3.60982461 69.3929646,3.58823738 69.336683,3.54524585 C69.2826728,3.50141949 69.2366339,3.44755078 69.2008131,3.38626868 L68.9946774,2.99403961 L68.9946774,2.99403961 Z M75.0233687,6.05759743 C75.1545773,6.22645351 75.2966625,6.34554918 75.4497967,6.41506739 C75.6054723,6.48449446 75.7727565,6.51995976 75.9416565,6.51935258 C76.119824,6.51935258 76.2791734,6.48641503 76.4197047,6.42000685 C76.5633437,6.35048863 76.6852296,6.24456483 76.7851898,6.10223544 C76.8851501,5.95661308 76.9616309,5.77293865 77.0148049,5.55121214 C77.0678063,5.32619267 77.0943933,5.05799873 77.0943933,4.74681326 C77.0943933,4.1873746 77.0068634,3.78362014 76.8319761,3.53536695 C76.6570888,3.28382079 76.405548,3.15795624 76.0775265,3.15795624 C75.8558529,3.15795624 75.6621475,3.21265609 75.496583,3.32187286 C75.3310184,3.42779666 75.1732228,3.57835847 75.0233687,3.77374124 L75.0233687,6.05759743 L75.0233687,6.05759743 Z M75.0233687,2.90970304 C75.2170741,2.69456247 75.4309787,2.52405991 75.6652551,2.3983783 C75.9026392,2.26922078 76.1728254,2.20464202 76.4758137,2.20464202 C76.7539415,2.20464202 77.0037558,2.26263485 77.225602,2.37843755 C77.4511636,2.49487275 77.6471602,2.66680792 77.7972227,2.87988339 C77.9565722,3.09502396 78.0782854,3.35663197 78.1627078,3.66434152 C78.2471302,3.97223402 78.2892551,4.3181786 78.2892551,4.70217525 C78.2892551,5.11580861 78.2407424,5.49157283 78.1438897,5.82910205 C78.0472097,6.1668142 77.9080595,6.45659538 77.7269571,6.69807969 C77.5535087,6.93247582 77.3325431,7.12254547 77.0804093,7.25422539 C76.8273147,7.38667587 76.546252,7.45290112 76.2368759,7.45290112 C76.0870218,7.45290112 75.9511518,7.43643628 75.8292659,7.40314071 C75.5989139,7.34814212 75.3848738,7.23392055 75.2060249,7.07055095 C75.1193877,6.98512983 75.0380203,6.89389737 74.9624257,6.79741756 L74.9108055,7.14006916 C74.8921601,7.22605222 74.8593579,7.28733801 74.8125717,7.3237436 C74.7687204,7.36014919 74.7077774,7.37844345 74.6297428,7.37844345 L73.8659704,7.37844345 L73.8659704,0.000182942662 L75.0233687,0.000182942662 L75.0233687,2.90970304 L75.0233687,2.90970304 Z M80.3544099,0.000182942662 L80.3544099,7.37826051 L79.1971843,7.37826051 L79.1971843,0.000182942662 L80.3544099,0.000182942662 Z M84.6047063,4.24536742 C84.6047063,4.08639025 84.5829533,3.93747492 84.5392746,3.7984385 C84.5015016,3.66204418 84.4376854,3.53532821 84.3517844,3.42615018 C84.267362,3.32004343 84.1596328,3.23735335 84.0284242,3.17789699 C83.9003231,3.11496471 83.7504691,3.08349857 83.5786893,3.08349857 C83.2444526,3.08349857 82.9804816,3.18448292 82.7867762,3.38626868 C82.5961784,3.58823738 82.4744651,3.87472559 82.4212911,4.24536742 L84.6047063,4.24536742 L84.6047063,4.24536742 Z M82.3978117,4.98518755 C82.4166297,5.24679555 82.4603084,5.47346151 82.5290203,5.66536836 C82.5977322,5.85398225 82.6883697,6.01113 82.8007603,6.13699455 C82.9129231,6.25919326 83.0488269,6.35407748 83.1990475,6.41506739 C83.3552894,6.4747067 83.5270691,6.50452636 83.7145593,6.50452636 C83.9018769,6.50452636 84.0627801,6.48129264 84.1970963,6.43500814 C84.3199102,6.39500701 84.4391051,6.34345609 84.5532587,6.28097042 C84.6435185,6.23219127 84.7325743,6.18095024 84.8203373,6.12729859 C84.8983719,6.08083115 84.9734716,6.05778037 85.0452911,6.05778037 C85.1421438,6.05778037 85.2139632,6.09564951 85.2607495,6.17175365 L85.5934324,6.61868258 C85.4689395,6.77420471 85.3237161,6.90966502 85.162343,7.02079055 C85.0045783,7.12594283 84.8364671,7.21255937 84.6609879,7.27910559 C84.4892082,7.34203786 84.3127671,7.38667587 84.131492,7.41320256 C83.9592409,7.43923575 83.7854854,7.45250081 83.6114915,7.45290112 C83.2772548,7.45290112 82.9663249,7.39490829 82.679047,7.27910559 C82.3970295,7.16366852 82.141435,6.98593362 81.9292587,6.757719 C81.7169079,6.52593065 81.5497896,6.24127186 81.4279037,5.90374265 C81.3061904,5.56273753 81.2452474,5.16886198 81.2452474,4.72193305 C81.2452474,4.374342 81.2982488,4.04833817 81.4044242,3.74392158 C81.5107723,3.43602908 81.6621801,3.16948162 81.8589931,2.94446215 C82.0589136,2.71614971 82.300959,2.5355853 82.5853019,2.40331775 C82.8727524,2.27086727 83.19594,2.20464202 83.5552099,2.20464202 C83.8581983,2.20464202 84.1377072,2.25586597 84.3939093,2.3584968 C84.6426678,2.4561304 84.8681983,2.61037502 85.0546138,2.81036518 C85.2389965,3.00574794 85.3826354,3.2474152 85.4857032,3.53536695 C85.5918786,3.82002573 85.6450526,4.14602955 85.6450526,4.51337842 C85.6450526,4.69888228 85.6262346,4.82456389 85.588771,4.89078913 C85.5513075,4.95372141 85.4794881,4.98518755 85.3733127,4.98518755 L82.3978117,4.98518755 L82.3978117,4.98518755 Z M90.919467,2.20464202 C91.2756293,2.20464202 91.5989896,2.26592781 91.8895476,2.38831646 C92.1830406,2.51088804 92.4330276,2.68468357 92.6391632,2.90970304 C92.8484065,3.13472252 93.0093097,3.4095024 93.1218729,3.73385974 C93.2342634,4.05821708 93.290545,4.42080943 93.290545,4.82127092 C93.290545,5.22520832 93.2342634,5.58926422 93.1218729,5.91362156 C93.0093097,6.2379789 92.8484065,6.51440526 92.6391632,6.7427177 C92.4330276,6.97121309 92.1830406,7.1466551 91.8895476,7.26904374 C91.5989896,7.39161532 91.2756293,7.45290112 90.919467,7.45290112 C90.5603697,7.45290112 90.2339019,7.39161532 89.9402362,7.26904374 C89.6465706,7.14647216 89.3952025,6.97121309 89.1857866,6.7427177 C88.9796509,6.51440526 88.8187477,6.2379789 88.7032496,5.91362156 C88.590859,5.58926422 88.5345774,5.22502538 88.5345774,4.82145386 C88.5345774,4.42080943 88.590859,4.05821708 88.7032496,3.73385974 C88.8187477,3.4095024 88.9796509,3.13472252 89.1857866,2.90970304 C89.3952025,2.68468357 89.6465706,2.51088804 89.9402362,2.38831646 C90.2339019,2.26574487 90.5603697,2.20464202 90.919467,2.20464202 L90.919467,2.20464202 Z M90.919467,6.50928286 C91.319308,6.50928286 91.6145274,6.36713642 91.8051252,6.08247763 C91.9988306,5.79781885 92.0956833,5.38070958 92.0956833,4.83114982 C92.0956833,4.28177301 91.9988306,3.86301726 91.8051252,3.57506551 C91.6145274,3.28711375 91.319308,3.14313788 90.919467,3.14313788 C90.5134108,3.14313788 90.2119762,3.28876024 90.0151633,3.58000496 C89.8216305,3.86795671 89.7247778,4.28506598 89.7247778,4.83133277 C89.7247778,5.37741661 89.8216305,5.79452588 90.0151633,6.08247763 C90.2119762,6.36713642 90.5134108,6.50946581 90.919467,6.50946581 L90.919467,6.50928286 Z M95.2557396,2.90970304 C95.3512632,2.80829497 95.4530605,2.7137479 95.5604543,2.62669074 C95.666536,2.53940483 95.7812026,2.46451302 95.90246,2.40331775 C96.0263932,2.33962206 96.1568552,2.2913099 96.2912519,2.25934188 C96.4385333,2.22160649 96.5896398,2.20323493 96.7411594,2.20464202 C97.0035766,2.20464202 97.2362993,2.252573 97.4393274,2.3486179 C97.6423555,2.44136983 97.8110276,2.57363737 97.9453439,2.74578642 C98.0827676,2.91464249 98.1858355,3.11825768 98.2545473,3.35663197 C98.3265395,3.59153034 98.3624492,3.85149187 98.3624492,4.13596771 L98.3624492,7.37844345 L97.2050509,7.37844345 L97.2050509,4.13596771 C97.2050509,3.82478224 97.1378928,3.58476147 97.0035766,3.41590539 C96.8692604,3.24393929 96.6646786,3.15777329 96.3896584,3.15777329 C96.1940299,3.15668163 96.0010944,3.20609776 95.827533,3.30174917 C95.652473,3.39779407 95.4869085,3.52859807 95.3308392,3.69397824 L95.3308392,7.37826051 L94.173441,7.37826051 L94.173441,2.28403914 L94.8809318,2.28403914 C95.0309585,2.28403914 95.1293649,2.3584968 95.1761512,2.50759507 L95.2557396,2.90970304 L95.2557396,2.90970304 Z" id="Shape"></path>
                </g>
            </g>
        </g>
    </g>
</svg>