<?xml version="1.0" encoding="UTF-8"?>
<svg width="17px" height="22px" viewBox="0 0 17 22" version="1.1" xmlns="http://www.w3.org/2000/svg" xmlns:xlink="http://www.w3.org/1999/xlink">
    <title>0212713A-2018-4D6E-9071-26F96F0803DE</title>
    <g id="Design" stroke="none" stroke-width="1" fill="none" fill-rule="evenodd">
        <g id="Game-Detail-Among-Us" transform="translate(-62.000000, -122.000000)" fill="#FFFFFF">
            <g id="iconmonstr-whats-hot-1" transform="translate(62.000000, 122.000000)">
                <path d="M5.3125,0 C5.88861111,6.58982288 0,8.85854059 0,14.6627913 C0,18.6053185 2.8985,21.970354 8.5,21.9998443 C14.1015,22.0290198 17,17.9535778 17,13.7901371 C17,9.99427442 15.0525556,6.41474204 11.3786667,4.18910705 C12.2513333,6.57882303 11.0896667,8.7613753 9.96105556,9.51303127 C10.0271667,6.45415814 8.89855556,1.91488941 5.3125,0 Z M9.76177778,11.9164971 C13.3081667,15.5730284 11.1302778,20.1663796 8.28183333,20.1663796 C6.54877778,20.1663796 5.65722222,19.0068128 5.66666667,17.8041633 C5.68461111,15.573945 8.25161111,15.5721117 9.76177778,11.9164971 Z" id="Shape"></path>
            </g>
        </g>
    </g>
</svg>